<?xml version="1.0" encoding="UTF-8" standalone="no"?>
<svg
   xmlns:dc="http://purl.org/dc/elements/1.1/"
   xmlns:cc="http://creativecommons.org/ns#"
   xmlns:rdf="http://www.w3.org/1999/02/22-rdf-syntax-ns#"
   xmlns:svg="http://www.w3.org/2000/svg"
   xmlns="http://www.w3.org/2000/svg"
   viewBox="0 0 666.66669 666.66669"
   height="666.66669"
   width="666.66669"
   xml:space="preserve"
   id="svg2"
   version="1.1"><metadata
     id="metadata8"><rdf:RDF><cc:Work
         rdf:about=""><dc:format>image/svg+xml</dc:format><dc:type
           rdf:resource="http://purl.org/dc/dcmitype/StillImage" /></cc:Work></rdf:RDF></metadata><defs
     id="defs6"><clipPath
       id="clipPath18"
       clipPathUnits="userSpaceOnUse"><path
         id="path16"
         d="M 0,500 H 500 V 0 H 0 Z" /></clipPath><clipPath
       id="clipPath30"
       clipPathUnits="userSpaceOnUse"><path
         id="path28"
         d="M 0,500 H 500 V 0 H 0 Z" /></clipPath><clipPath
       id="clipPath50"
       clipPathUnits="userSpaceOnUse"><path
         id="path48"
         d="M 0,500 H 500 V 0 H 0 Z" /></clipPath><clipPath
       id="clipPath62"
       clipPathUnits="userSpaceOnUse"><path
         id="path60"
         d="m 20.9107,248.481 h 59.452 v -81.734 h -59.452 z" /></clipPath><clipPath
       id="clipPath94"
       clipPathUnits="userSpaceOnUse"><path
         id="path92"
         d="m 427.561,274.201 h 29.474 v -59.477 h -29.474 z" /></clipPath><clipPath
       id="clipPath122"
       clipPathUnits="userSpaceOnUse"><path
         id="path120"
         d="M 0,500 H 500 V 0 H 0 Z" /></clipPath><clipPath
       id="clipPath166"
       clipPathUnits="userSpaceOnUse"><path
         id="path164"
         d="m 191.806,415.407 h 69.809 v -46.669 h -69.809 z" /></clipPath><clipPath
       id="clipPath214"
       clipPathUnits="userSpaceOnUse"><path
         id="path212"
         d="M 0,500 H 500 V 0 H 0 Z" /></clipPath><clipPath
       id="clipPath226"
       clipPathUnits="userSpaceOnUse"><path
         id="path224"
         d="m 132.011,322.186 h 144.71 v -83.552 h -144.71 z" /></clipPath><clipPath
       id="clipPath242"
       clipPathUnits="userSpaceOnUse"><path
         id="path240"
         d="m 131.249,242.886 h 10.177 V 131.643 h -10.177 z" /></clipPath><clipPath
       id="clipPath258"
       clipPathUnits="userSpaceOnUse"><path
         id="path256"
         d="M 139.385,318.216 H 277.483 V 132.049 H 139.385 Z" /></clipPath><clipPath
       id="clipPath274"
       clipPathUnits="userSpaceOnUse"><path
         id="path272"
         d="M 0,500 H 500 V 0 H 0 Z" /></clipPath><clipPath
       id="clipPath434"
       clipPathUnits="userSpaceOnUse"><path
         id="path432"
         d="M 0,500 H 500 V 0 H 0 Z" /></clipPath></defs><g
     transform="matrix(1.3333333,0,0,-1.3333333,0,666.66667)"
     id="g10"><g
       id="g12"><g
         clip-path="url(#clipPath18)"
         id="g14"><g
           transform="translate(85.4546,81.9922)"
           id="g20"><path
             id="path22"
             style="fill:#f5f5f5;fill-opacity:1;fill-rule:nonzero;stroke:none"
             d="m 0,0 c 88.758,-45.379 232.663,-45.38 321.418,-0.001 88.758,45.38 88.758,118.954 0,164.333 -88.756,45.38 -232.661,45.38 -321.419,0.001 C -88.758,118.954 -88.758,45.379 0,0" /></g></g></g><g
       id="g24"><g
         clip-path="url(#clipPath30)"
         id="g26"><g
           transform="translate(375.7314,154.4883)"
           id="g32"><path
             id="path34"
             style="fill:#ebebeb;fill-opacity:1;fill-rule:nonzero;stroke:none"
             d="m 0,0 c 4.864,-2.808 14.424,-1.842 21.353,2.159 l 39.935,23.193 c 6.929,4.001 8.594,9.524 3.719,12.339 -4.875,2.814 -14.442,1.85 -21.368,-2.153 L 3.734,12.333 C -3.192,8.33 -4.864,2.808 0,0" /></g><g
           transform="translate(135.3115,133.0996)"
           id="g36"><path
             id="path38"
             style="fill:#ebebeb;fill-opacity:1;fill-rule:nonzero;stroke:none"
             d="M 0,0 -40.621,23.452 0,46.905 Z" /></g><g
           transform="translate(250.1191,119.0684)"
           id="g40"><path
             id="path42"
             style="fill:#ebebeb;fill-opacity:1;fill-rule:nonzero;stroke:none"
             d="M 0,0 -65.47,37.824 0.016,75.574 Z" /></g></g></g><g
       id="g44"><g
         clip-path="url(#clipPath50)"
         id="g46"><g
           transform="translate(80.3613,187.9336)"
           id="g52"><path
             id="path54"
             style="fill:#27debf;fill-opacity:1;fill-rule:nonzero;stroke:none"
             d="M 0,0 C 0.114,9.501 -6.521,29.264 -16.232,41.719 -25.943,54.174 -41.336,63.38 -52.393,59.746 -62.69,56.361 -61.741,42.894 -49.405,33.828 -37.069,24.763 -18.5,13.339 -13.214,-2.139 L -1.96,-21.186 Z" /></g><g
           id="g56"><g
             id="g58" /><g
             id="g70"><g
               style="opacity:0.10000598"
               id="g68"
               clip-path="url(#clipPath62)"><g
                 id="g66"
                 transform="translate(80.3613,187.9336)"><path
                   id="path64"
                   style="fill:#000000;fill-opacity:1;fill-rule:nonzero;stroke:none"
                   d="M 0,0 C 0.114,9.501 -6.521,29.264 -16.232,41.719 -25.943,54.174 -41.336,63.38 -52.393,59.746 -62.69,56.361 -61.741,42.894 -49.405,33.828 -37.069,24.763 -18.5,13.339 -13.214,-2.139 L -1.96,-21.186 Z" /></g></g></g></g><g
           transform="translate(80.9063,174.9238)"
           id="g72"><path
             id="path74"
             style="fill:#ffffff;fill-opacity:1;fill-rule:nonzero;stroke:none"
             d="m 0,0 c -0.303,0.028 -0.562,0.254 -0.619,0.566 -5.972,32.51 -31.892,59.187 -47.526,65.201 -0.357,0.137 -0.537,0.539 -0.399,0.897 0.136,0.356 0.53,0.543 0.897,0.399 C -31.715,60.935 -5.316,33.819 0.747,0.817 0.816,0.44 0.566,0.079 0.19,0.009 0.125,-0.003 0.062,-0.005 0,0" /></g><g
           transform="translate(75.8198,154.2217)"
           id="g76"><path
             id="path78"
             style="fill:#27debf;fill-opacity:1;fill-rule:nonzero;stroke:none"
             d="m 0,0 c -1.462,5.359 -7.88,14.251 -18.343,21.658 -11.575,8.194 -26.302,12.075 -29.631,18.384 -4,7.58 2.432,14.618 14.404,12.987 11.971,-1.631 32.855,-18.243 35.928,-42.912 z" /></g><g
           transform="translate(78.207,159.7983)"
           id="g80"><path
             id="path82"
             style="fill:#ffffff;fill-opacity:1;fill-rule:nonzero;stroke:none"
             d="m 0,0 c -0.263,0.024 -0.5,0.199 -0.593,0.466 -9.612,27.905 -30.694,37.912 -40.497,39.305 -0.379,0.053 -0.643,0.405 -0.59,0.785 0.054,0.381 0.39,0.645 0.785,0.59 C -30.054,39.606 -9.091,29.401 0.721,0.918 0.845,0.556 0.652,0.16 0.29,0.036 0.194,0.002 0.095,-0.009 0,0" /></g><g
           transform="translate(434.9248,214.9766)"
           id="g84"><path
             id="path86"
             style="fill:#27debf;fill-opacity:1;fill-rule:nonzero;stroke:none"
             d="M 0,0 C 0,0 1.333,20.032 13.138,34.901 24.942,49.771 24.217,55.895 16.077,58.896 7.938,61.897 -10.968,43.977 -6.761,19.979 -2.554,-4.02 0,0 0,0" /></g><g
           id="g88"><g
             id="g90" /><g
             id="g102"><g
               style="opacity:0.10000598"
               id="g100"
               clip-path="url(#clipPath94)"><g
                 id="g98"
                 transform="translate(434.9248,214.9766)"><path
                   id="path96"
                   style="fill:#000000;fill-opacity:1;fill-rule:nonzero;stroke:none"
                   d="M 0,0 C 0,0 1.333,20.032 13.138,34.901 24.942,49.771 24.217,55.895 16.077,58.896 7.938,61.897 -10.968,43.977 -6.761,19.979 -2.554,-4.02 0,0 0,0" /></g></g></g></g><g
           transform="translate(431.3193,226.4185)"
           id="g104"><path
             id="path106"
             style="fill:#ffffff;fill-opacity:1;fill-rule:nonzero;stroke:none"
             d="m 0,0 c -0.245,0 -0.449,0.19 -0.465,0.436 -1.379,22.059 14.2,40.158 20.031,44.254 0.208,0.148 0.5,0.098 0.648,-0.113 0.148,-0.21 0.098,-0.499 -0.113,-0.648 C 14.384,39.913 -0.891,22.157 0.464,0.494 0.48,0.238 0.285,0.018 0.028,0.001 0.019,0 0.009,0 0,0" /></g><g
           transform="translate(431.7158,198.4351)"
           id="g108"><path
             id="path110"
             style="fill:#27debf;fill-opacity:1;fill-rule:nonzero;stroke:none"
             d="m 0,0 c 0,0 7.114,-2.465 16.255,-3.913 9.141,-1.447 13.176,2.925 13.176,2.925 0,0 -3.6,8.573 -8.791,10.979 0,0 8.801,-1.794 15.865,-6.508 0,0 5.582,-0.085 7.804,8.435 0,0 -3.308,5.127 -14.404,7.896 0,0 6.751,1.699 16.48,-0.782 0.729,-0.29 3.839,10.725 4.779,15.807 0.94,5.081 -1.101,5.028 -5.063,6.086 -3.962,1.057 -17.083,4.005 -19.564,1.826 -2.48,-2.179 -3.74,-9.629 -3.74,-9.629 0,0 -1.634,4.396 -0.372,9.442 0,0 -3.566,1.394 -9.098,-0.216 -4.525,-1.316 -4.746,-4.396 -4.541,-7.876 0.15,-2.544 0.763,-5.255 1.959,-8.836 0,0 -3.528,4.522 -3.637,14.324 0,0 -9.26,-4.6 -10.842,-13.792 C -4.589,21.2 -5.801,6.603 0,0" /></g><g
           transform="translate(433.4629,200.2227)"
           id="g112"><path
             id="path114"
             style="fill:#ffffff;fill-opacity:1;fill-rule:nonzero;stroke:none"
             d="m 0,0 c 0.19,0 0.374,0.107 0.463,0.291 7.376,15.325 34.802,33.133 44.625,35.044 0.278,0.054 0.461,0.324 0.407,0.603 -0.055,0.279 -0.327,0.458 -0.603,0.407 C 34.906,34.402 7.03,16.307 -0.463,0.737 -0.587,0.481 -0.479,0.174 -0.224,0.051 -0.151,0.016 -0.076,0 0,0" /></g></g></g><g
       id="g116"><g
         clip-path="url(#clipPath122)"
         id="g118"><g
           transform="translate(76.7813,147.1362)"
           id="g124"><path
             id="path126"
             style="fill:#fafafa;fill-opacity:1;fill-rule:nonzero;stroke:none"
             d="m 0,0 c -1.134,0 -1.812,0.937 -1.812,2.506 v 168.209 l 205.995,118.931 0.001,-167.532 c 0,-2.571 -1.812,-5.708 -4.038,-6.994 L 1.641,0.513 C 1.06,0.177 0.492,0 0,0" /></g><g
           transform="translate(281.5488,437.7954)"
           id="g128"><path
             id="path130"
             style="fill:#e0e0e0;fill-opacity:1;fill-rule:nonzero;stroke:none"
             d="m 0,0 -207.164,-119.606 v -168.547 c 0,-1.958 0.976,-3.091 2.396,-3.091 0.582,0 1.239,0.19 1.934,0.591 l 198.505,114.608 c 2.392,1.38 4.33,4.738 4.33,7.5 z m -1.17,-2.026 10e-4,-166.519 c 0,-2.345 -1.715,-5.315 -3.745,-6.487 L -203.419,-289.64 c -0.492,-0.284 -0.959,-0.434 -1.349,-0.434 -1.107,0 -1.226,1.344 -1.226,1.921 v 167.871 L -1.17,-2.026" /></g><g
           transform="translate(74.3848,318.189)"
           id="g132"><path
             id="path134"
             style="fill:#27debf;fill-opacity:1;fill-rule:nonzero;stroke:none"
             d="m 0,0 v -28.144 l 207.162,119.605 0.002,28.145 z" /></g><g
           transform="translate(90.6318,316.687)"
           id="g136"><path
             id="path138"
             style="fill:#fafafa;fill-opacity:1;fill-rule:nonzero;stroke:none"
             d="m 0,0 v -4.036 c 0,-0.825 0.585,-1.162 1.3,-0.75 L 64.993,31.987 64.992,39.023 1.299,2.25 C 0.584,1.837 0,0.825 0,0" /></g><g
           transform="translate(162.4497,359.6509)"
           id="g140"><path
             id="path142"
             style="fill:#455a64;fill-opacity:1;fill-rule:nonzero;stroke:none"
             d="M 0,0 C 0.718,0.415 1.299,0.079 1.299,-0.75 V -4.786 C 1.299,-5.614 0.718,-6.622 0,-7.036 l -6.825,-3.941 -10e-4,7.036 z" /></g><g
           transform="translate(74.3848,327.2607)"
           id="g144"><path
             id="path146"
             style="fill:#455a64;fill-opacity:1;fill-rule:nonzero;stroke:none"
             d="m 0,0 c 0,2.761 1.938,6.119 4.33,7.5 l 198.503,114.606 c 2.392,1.381 4.331,0.262 4.331,-2.5 v -9.071 L 0,-9.072 Z" /></g><g
           transform="translate(258.5244,433.8643)"
           id="g148"><path
             id="path150"
             style="fill:#27debf;fill-opacity:1;fill-rule:nonzero;stroke:none"
             d="m 0,0 c -1.121,-0.648 -2.031,-2.223 -2.031,-3.518 0,-1.295 0.91,-1.821 2.031,-1.173 1.122,0.648 2.031,2.222 2.031,3.518 C 2.031,0.123 1.122,0.647 0,0" /></g><g
           transform="translate(264.959,437.5845)"
           id="g152"><path
             id="path154"
             style="fill:#27debf;fill-opacity:1;fill-rule:nonzero;stroke:none"
             d="m 0,0 c -1.122,-0.648 -2.031,-2.223 -2.031,-3.519 0,-1.295 0.909,-1.82 2.031,-1.172 1.121,0.647 2.031,2.222 2.031,3.518 C 2.031,0.123 1.121,0.647 0,0" /></g><g
           transform="translate(271.3936,441.3042)"
           id="g156"><path
             id="path158"
             style="fill:#27debf;fill-opacity:1;fill-rule:nonzero;stroke:none"
             d="m 0,0 c -1.122,-0.647 -2.031,-2.223 -2.031,-3.518 0,-1.295 0.909,-1.82 2.031,-1.173 1.121,0.648 2.03,2.223 2.03,3.518 C 2.03,0.123 1.121,0.648 0,0" /></g><g
           id="g160"><g
             id="g162" /><g
             id="g186"><g
               style="opacity:0.10000598"
               id="g184"
               clip-path="url(#clipPath166)"><g
                 id="g170"
                 transform="translate(216.5547,391.3252)"><path
                   id="path168"
                   style="fill:#000000;fill-opacity:1;fill-rule:nonzero;stroke:none"
                   d="m 0,0 c -2.452,-1.416 -4.439,-4.859 -4.439,-7.69 0,-2.832 1.987,-3.98 4.439,-2.564 2.452,1.415 4.44,4.858 4.44,7.69 C 4.44,0.268 2.452,1.416 0,0" /></g><g
                 id="g174"
                 transform="translate(196.2451,379.5991)"><path
                   id="path172"
                   style="fill:#000000;fill-opacity:1;fill-rule:nonzero;stroke:none"
                   d="m 0,0 c -2.452,-1.416 -4.439,-4.859 -4.439,-7.69 0,-2.832 1.987,-3.98 4.439,-2.564 2.452,1.415 4.439,4.858 4.439,7.69 C 4.439,0.268 2.452,1.416 0,0" /></g><g
                 id="g178"
                 transform="translate(236.8652,403.0518)"><path
                   id="path176"
                   style="fill:#000000;fill-opacity:1;fill-rule:nonzero;stroke:none"
                   d="m 0,0 c -2.452,-1.416 -4.44,-4.859 -4.44,-7.69 0,-2.832 1.988,-3.98 4.44,-2.565 2.452,1.416 4.439,4.859 4.439,7.691 C 4.439,0.268 2.452,1.416 0,0" /></g><g
                 id="g182"
                 transform="translate(257.1758,414.8003)"><path
                   id="path180"
                   style="fill:#000000;fill-opacity:1;fill-rule:nonzero;stroke:none"
                   d="m 0,0 c -2.452,-1.416 -4.439,-4.859 -4.439,-7.69 0,-2.832 1.987,-3.98 4.439,-2.564 2.452,1.415 4.439,4.858 4.439,7.69 C 4.439,0.268 2.452,1.416 0,0" /></g></g></g></g><g
           transform="translate(94.9624,287.8535)"
           id="g188"><path
             id="path190"
             style="fill:#e0e0e0;fill-opacity:1;fill-rule:nonzero;stroke:none"
             d="m 0,0 48.208,27.833 c 2.392,1.381 4.33,0.262 4.33,-2.5 v -46.285 c 0,-2.761 -1.938,-6.119 -4.33,-7.5 L 0.001,-56.286 c -2.391,-1.381 -4.33,-0.261 -4.33,2.5 L -4.33,-7.5 c 0,2.762 1.938,6.119 4.33,7.5" /></g><g
           transform="translate(164.021,327.7227)"
           id="g192"><path
             id="path194"
             style="fill:#e0e0e0;fill-opacity:1;fill-rule:nonzero;stroke:none"
             d="m 0,0 101.011,58.322 c 2.391,1.381 4.33,0.261 4.33,-2.5 V 9.537 c 0,-2.762 -1.938,-6.12 -4.33,-7.5 L 0.001,-56.286 c -2.392,-1.381 -4.33,-0.261 -4.33,2.5 L -4.33,-7.5 c 0,2.762 1.938,6.12 4.33,7.5" /></g><g
           transform="translate(94.9629,217.4971)"
           id="g196"><path
             id="path198"
             style="fill:#e0e0e0;fill-opacity:1;fill-rule:nonzero;stroke:none"
             d="m 0,0 76.642,44.25 c 2.391,1.38 4.33,0.399 4.331,-2.191 0,-2.59 -1.939,-5.809 -4.33,-7.19 L 0,-9.381 c -2.392,-1.38 -4.33,-0.4 -4.33,2.191 0,2.59 1.938,5.809 4.33,7.19" /></g><g
           transform="translate(94.9629,201.083)"
           id="g200"><path
             id="path202"
             style="fill:#e0e0e0;fill-opacity:1;fill-rule:nonzero;stroke:none"
             d="m 0,0 76.642,44.249 c 2.391,1.381 4.33,0.4 4.331,-2.19 0,-2.59 -1.939,-5.809 -4.33,-7.19 L 0,-9.381 c -2.392,-1.381 -4.33,-0.4 -4.33,2.191 0,2.59 1.938,5.809 4.33,7.19" /></g><g
           transform="translate(94.9629,184.6685)"
           id="g204"><path
             id="path206"
             style="fill:#e0e0e0;fill-opacity:1;fill-rule:nonzero;stroke:none"
             d="m 0,0 76.642,44.25 c 2.391,1.38 4.33,0.399 4.331,-2.191 0,-2.59 -1.939,-5.809 -4.33,-7.19 L 0,-9.381 c -2.392,-1.38 -4.33,-0.4 -4.33,2.191 0,2.59 1.938,5.809 4.33,7.19" /></g></g></g><g
       id="g208"><g
         clip-path="url(#clipPath214)"
         id="g210"><g
           transform="translate(131.2529,240.3276)"
           id="g216"><path
             id="path218"
             style="fill:#27debf;fill-opacity:1;fill-rule:nonzero;stroke:none"
             d="m 0,0 c 0,1.657 1.163,3.671 2.598,4.5 l 132.911,76.736 c 1.434,0.828 3.761,0.828 5.196,0 l 2.928,-1.691 c 1.435,-0.828 2.598,-2.843 2.598,-4.5 V -26.833 c 0,-1.65 -1.169,-3.675 -2.597,-4.5 L 10.723,-108.069 c -1.43,-0.825 -3.767,-0.825 -5.197,0 l -2.927,1.69 c -1.43,0.825 -2.599,2.85 -2.599,4.5 z" /></g><g
           id="g220"><g
             id="g222" /><g
             id="g234"><g
               style="opacity:0.39999402"
               id="g232"
               clip-path="url(#clipPath226)"><g
                 id="g230"
                 transform="translate(132.0107,242.8862)"><path
                   id="path228"
                   style="fill:#ffffff;fill-opacity:1;fill-rule:nonzero;stroke:none"
                   d="m 0,0 7.375,-4.252 137.336,79.299 c -0.468,0.811 -1.119,1.524 -1.832,1.942 l -2.938,1.684 c -1.425,0.835 -3.76,0.835 -5.186,0 L 1.844,1.942 C 1.119,1.524 0.467,0.812 0,0" /></g></g></g></g><g
           id="g236"><g
             id="g238" /><g
             id="g250"><g
               style="opacity:0.10000598"
               id="g248"
               clip-path="url(#clipPath242)"><g
                 id="g246"
                 transform="translate(131.249,240.3301)"><path
                   id="path244"
                   style="fill:#000000;fill-opacity:1;fill-rule:nonzero;stroke:none"
                   d="m 0,0 v -101.877 c 0,-1.66 1.167,-3.675 2.605,-4.499 l 2.926,-1.696 c 0.221,-0.123 0.454,-0.234 0.713,-0.32 0.331,-0.11 0.688,-0.196 1.069,-0.245 0.676,-0.086 1.389,-0.062 2.052,0.074 0.172,0.036 0.344,0.085 0.504,0.135 0.111,0.036 0.209,0.074 0.307,0.122 -0.479,-0.172 -0.897,-0.147 -1.241,0.025 -0.492,0.258 -0.799,0.848 -0.799,1.709 V -4.695 c 0,1.069 0.541,1.881 1.352,2.212 L 8.136,-1.696 0.762,2.556 C 0.295,1.745 0,0.823 0,0" /></g></g></g></g><g
           id="g252"><g
             id="g254" /><g
             id="g266"><g
               style="opacity:0.19999701"
               id="g264"
               clip-path="url(#clipPath258)"><g
                 id="g262"
                 transform="translate(139.3853,238.6338)"><path
                   id="path260"
                   style="fill:#000000;fill-opacity:1;fill-rule:nonzero;stroke:none"
                   d="m 0,0 61.552,-22.996 c 4.387,-1.634 9.316,-0.012 11.872,3.909 l 9.885,15.143 54.519,83.526 -52.549,-84.095 52.819,-20.671 c -0.013,-0.836 -0.319,-1.77 -0.811,-2.593 L 85.132,-4.749 73.646,-23.131 c -2.643,-4.216 -7.977,-5.863 -12.524,-3.847 l -8.179,3.61 -52.144,-83.216 C 0.307,-106.327 0,-105.736 0,-104.876 v 1.696 l 52.688,79.925 z" /></g></g></g></g></g></g><g
       id="g268"><g
         clip-path="url(#clipPath274)"
         id="g270"><g
           transform="translate(249.0522,355.5947)"
           id="g276"><path
             id="path278"
             style="fill:#fafafa;fill-opacity:1;fill-rule:nonzero;stroke:none"
             d="m 0,0 v -233.903 c 0,-2.762 1.939,-3.881 4.331,-2.5 l 105.078,60.666 c 2.39,1.381 4.33,4.738 4.33,7.5 V 65.666 c 0,2.761 -1.94,3.88 -4.33,2.5 L 4.331,7.5 C 1.939,6.119 0,2.761 0,0" /></g><g
           transform="translate(249.0522,355.5947)"
           id="g280"><path
             id="path282"
             style="fill:none;stroke:#e0e0e0;stroke-width:1.16999996;stroke-linecap:butt;stroke-linejoin:miter;stroke-miterlimit:10;stroke-dasharray:none;stroke-opacity:1"
             d="m 0,0 v -233.903 c 0,-2.762 1.939,-3.881 4.331,-2.5 l 105.078,60.666 c 2.39,1.381 4.33,4.738 4.33,7.5 V 65.666 c 0,2.761 -1.94,3.88 -4.33,2.5 L 4.331,7.5 C 1.939,6.119 0,2.761 0,0 Z" /></g><g
           transform="translate(255.1416,351.2363)"
           id="g284"><path
             id="path286"
             style="fill:#455a64;fill-opacity:1;fill-rule:nonzero;stroke:none"
             d="m 0,0 c 0,0.648 0.504,1.464 1.126,1.823 l 11.97,6.908 C 13.718,9.09 14.222,8.856 14.222,8.208 14.221,7.561 13.717,6.745 13.095,6.386 L 1.126,-0.523 C 0.504,-0.882 0,-0.647 0,0" /></g><g
           transform="translate(255.1416,346.5786)"
           id="g288"><path
             id="path290"
             style="fill:#455a64;fill-opacity:1;fill-rule:nonzero;stroke:none"
             d="M 0,0 C 0,0.647 0.504,1.463 1.126,1.822 L 13.096,8.73 C 13.718,9.089 14.222,8.855 14.222,8.208 14.221,7.561 13.717,6.745 13.095,6.386 L 1.126,-0.523 C 0.504,-0.882 0,-0.648 0,0" /></g><g
           transform="translate(255.1416,341.9204)"
           id="g292"><path
             id="path294"
             style="fill:#455a64;fill-opacity:1;fill-rule:nonzero;stroke:none"
             d="m 0,0 c 0,0.647 0.504,1.464 1.126,1.823 l 11.97,6.908 C 13.718,9.09 14.222,8.855 14.222,8.208 14.221,7.561 13.717,6.745 13.095,6.386 L 1.126,-0.523 C 0.504,-0.882 0,-0.648 0,0" /></g><g
           transform="translate(348.3398,396.0254)"
           id="g296"><path
             id="path298"
             style="fill:#37474f;fill-opacity:1;fill-rule:nonzero;stroke:none"
             d="M 0,0 C -1.51,-0.872 -2.733,-0.165 -2.733,1.578 -2.733,3.32 -1.51,5.44 0,6.311 1.509,7.183 2.732,6.476 2.732,4.733 2.732,2.991 1.509,0.872 0,0 m 6.325,5.874 v 1.868 c 0,0.111 -0.082,0.164 -0.183,0.118 L 4.701,7.211 C 4.6,7.166 4.495,7.216 4.462,7.322 4.378,7.587 4.27,7.825 4.141,8.037 4.082,8.131 4.069,8.286 4.119,8.385 l 0.959,1.935 c 0.05,0.1 0.012,0.226 -0.085,0.282 L 3.952,11.204 C 3.855,11.259 3.727,11.229 3.665,11.136 L 2.469,9.337 C 2.407,9.245 2.268,9.179 2.156,9.182 1.908,9.188 1.648,9.163 1.377,9.103 1.269,9.079 1.173,9.145 1.161,9.255 L 1.004,10.827 C 0.992,10.938 0.905,10.982 0.809,10.926 L -0.81,9.993 C -0.905,9.937 -0.992,9.802 -1.002,9.691 l -0.162,-1.8 C -1.174,7.78 -1.25,7.63 -1.332,7.555 -1.647,7.265 -1.947,6.945 -2.23,6.604 -2.302,6.518 -2.443,6.477 -2.549,6.514 L -3.587,6.876 C -3.692,6.913 -3.823,6.864 -3.879,6.768 L -5.067,4.708 C -5.124,4.611 -5.101,4.474 -5.016,4.401 L -4.183,3.684 C -4.098,3.611 -4.062,3.468 -4.102,3.363 -4.256,2.947 -4.383,2.527 -4.476,2.109 -4.5,2 -4.592,1.86 -4.683,1.796 L -6.161,0.755 C -6.252,0.691 -6.326,0.549 -6.326,0.437 V -1.43 c 0,-0.112 0.083,-0.165 0.184,-0.119 l 1.44,0.649 c 0.101,0.046 0.206,-0.005 0.24,-0.111 0.083,-0.265 0.191,-0.503 0.32,-0.714 0.059,-0.095 0.072,-0.249 0.023,-0.349 l -0.96,-1.935 c -0.05,-0.1 -0.012,-0.226 0.085,-0.282 l 1.042,-0.601 c 0.097,-0.056 0.224,-0.026 0.286,0.067 l 1.196,1.799 c 0.062,0.092 0.201,0.158 0.314,0.155 0.247,-0.006 0.507,0.019 0.778,0.079 0.108,0.024 0.205,-0.041 0.216,-0.152 l 0.158,-1.572 c 0.011,-0.11 0.099,-0.155 0.194,-0.1 l 1.619,0.934 c 0.096,0.057 0.182,0.191 0.192,0.303 l 0.162,1.799 c 0.011,0.112 0.087,0.261 0.169,0.336 0.314,0.29 0.615,0.61 0.898,0.952 0.071,0.085 0.212,0.126 0.318,0.09 l 1.038,-0.363 c 0.105,-0.037 0.236,0.012 0.292,0.108 l 1.189,2.06 C 5.123,1.7 5.1,1.837 5.016,1.91 L 4.182,2.627 C 4.098,2.7 4.062,2.844 4.101,2.948 4.256,3.364 4.382,3.784 4.476,4.202 4.5,4.311 4.591,4.451 4.683,4.516 L 6.16,5.556 C 6.251,5.62 6.325,5.762 6.325,5.874" /></g><g
           transform="translate(305.9219,355.7993)"
           id="g300"><path
             id="path302"
             style="fill:#455a64;fill-opacity:1;fill-rule:nonzero;stroke:none"
             d="M 0,0 C 12.277,7.089 22.23,1.342 22.23,-12.834 22.23,-27.012 12.277,-44.25 0,-51.34 c -12.278,-7.088 -22.231,-1.342 -22.231,12.836 0,14.176 9.953,31.416 22.231,38.504" /></g><g
           transform="translate(305.7656,344.6421)"
           id="g304"><path
             id="path306"
             style="fill:#27debf;fill-opacity:1;fill-rule:nonzero;stroke:none"
             d="m 0,0 c 3.982,2.3 7.212,0.436 7.212,-4.164 0,-4.599 -3.23,-10.192 -7.212,-12.492 -3.983,-2.299 -7.213,-0.435 -7.213,4.164 0,4.6 3.23,10.193 7.213,12.492" /></g><g
           transform="translate(319.9785,320.1172)"
           id="g308"><path
             id="path310"
             style="fill:#27debf;fill-opacity:1;fill-rule:nonzero;stroke:none"
             d="m 0,0 c 0,7.557 -5.306,10.62 -11.849,6.841 l -4.09,-2.362 C -22.482,0.702 -27.788,-8.487 -27.788,-16.043 v -2.061 c 1.181,-0.393 2.463,-0.587 3.819,-0.59 2.985,-0.006 6.345,0.977 9.912,3.036 5.334,3.08 10.227,8.078 14.057,13.906 z" /></g><g
           transform="translate(285.8555,283.3657)"
           id="g312"><path
             id="path314"
             style="fill:#27debf;fill-opacity:1;fill-rule:nonzero;stroke:none"
             d="m 0,0 40.132,23.17 c 1.195,0.69 2.165,0.2 2.165,-1.095 0,-1.296 -0.97,-2.905 -2.165,-3.596 L 0,-4.69 c -1.195,-0.691 -2.165,-0.2 -2.165,1.095 0,1.295 0.97,2.905 2.165,3.595" /></g><g
           transform="translate(281.5488,266.7935)"
           id="g316"><path
             id="path318"
             style="fill:#455a64;fill-opacity:1;fill-rule:nonzero;stroke:none"
             d="m 0,0 48.745,28.173 c 1.195,0.69 2.165,0.2 2.165,-1.095 0,-1.295 -0.97,-2.905 -2.165,-3.596 L 0,-4.69 C -1.195,-5.381 -2.165,-4.891 -2.165,-3.595 -2.165,-2.3 -1.195,-0.69 0,0" /></g><g
           transform="translate(331.5937,272.2554)"
           id="g320"><path
             id="path322"
             style="fill:#37474f;fill-opacity:1;fill-rule:nonzero;stroke:none"
             d="m 0,0 13.648,7.881 c 0.718,0.414 1.299,0.225 1.299,-0.423 0,-0.647 -0.581,-1.508 -1.299,-1.922 L 0,-2.345 c -0.718,-0.414 -1.3,-0.225 -1.3,0.423 0,0.647 0.582,1.508 1.3,1.922" /></g><g
           transform="translate(263.4043,237.5703)"
           id="g324"><path
             id="path326"
             style="fill:#27debf;fill-opacity:1;fill-rule:nonzero;stroke:none"
             d="m 0,0 20.042,11.571 c 1.195,0.691 2.165,0.131 2.165,-1.25 V -3.44 c 0,-1.381 -0.969,-3.06 -2.165,-3.75 L 0,-18.762 c -1.195,-0.69 -2.165,-0.13 -2.165,1.25 V -3.75 c 0,1.381 0.97,3.06 2.165,3.75" /></g><g
           transform="translate(266.6006,235.647)"
           id="g328"><path
             id="path330"
             style="fill:#fafafa;fill-opacity:1;fill-rule:nonzero;stroke:none"
             d="m 0,0 13.649,7.881 c 0.718,0.414 1.299,0.225 1.299,-0.423 0,-0.647 -0.581,-1.508 -1.299,-1.923 L 0,-2.346 C -0.717,-2.76 -1.299,-2.57 -1.299,-1.923 -1.299,-1.275 -0.717,-0.415 0,0" /></g><g
           transform="translate(265.3018,228.7061)"
           id="g332"><path
             id="path334"
             style="fill:#fafafa;fill-opacity:1;fill-rule:nonzero;stroke:none"
             d="m 0,0 v -4.035 c 0,-0.828 0.582,-1.164 1.299,-0.75 l 13.649,7.881 c 0.718,0.414 1.299,1.422 1.299,2.25 l 0.001,4.035 c 0,0.829 -0.582,1.165 -1.299,0.75 L 1.299,2.25 C 0.582,1.836 0,0.829 0,0" /></g><g
           transform="translate(295.9004,256.332)"
           id="g336"><path
             id="path338"
             style="fill:#27debf;fill-opacity:1;fill-rule:nonzero;stroke:none"
             d="m 0,0 20.042,11.571 c 1.195,0.69 2.165,0.131 2.165,-1.25 V -3.44 c 0,-1.381 -0.97,-3.06 -2.165,-3.75 L 0,-18.762 c -1.196,-0.69 -2.165,-0.131 -2.165,1.25 V -3.75 c 0,1.38 0.969,3.06 2.165,3.75" /></g><g
           transform="translate(299.0967,254.4082)"
           id="g340"><path
             id="path342"
             style="fill:#fafafa;fill-opacity:1;fill-rule:nonzero;stroke:none"
             d="m 0,0 13.649,7.881 c 0.717,0.414 1.299,0.225 1.299,-0.423 0,-0.647 -0.582,-1.508 -1.299,-1.923 L 0,-2.345 C -0.718,-2.76 -1.299,-2.57 -1.299,-1.923 -1.299,-1.275 -0.718,-0.415 0,0" /></g><g
           transform="translate(297.7979,247.4673)"
           id="g344"><path
             id="path346"
             style="fill:#fafafa;fill-opacity:1;fill-rule:nonzero;stroke:none"
             d="m 0,0 v -4.035 c 0,-0.828 0.581,-1.164 1.299,-0.75 l 13.649,7.881 c 0.717,0.414 1.299,1.422 1.299,2.25 v 4.036 c 0.001,0.828 -0.581,1.164 -1.299,0.75 L 1.299,2.25 C 0.581,1.836 0,0.829 0,0" /></g><g
           transform="translate(328.3965,275.0942)"
           id="g348"><path
             id="path350"
             style="fill:#27debf;fill-opacity:1;fill-rule:nonzero;stroke:none"
             d="m 0,0 20.042,11.571 c 1.195,0.691 2.165,0.131 2.165,-1.25 V -3.44 c 0,-1.381 -0.969,-3.06 -2.165,-3.75 L 0,-18.762 c -1.195,-0.69 -2.165,-0.131 -2.165,1.25 V -3.75 c 0,1.381 0.97,3.06 2.165,3.75" /></g><g
           transform="translate(331.5928,273.1704)"
           id="g352"><path
             id="path354"
             style="fill:#fafafa;fill-opacity:1;fill-rule:nonzero;stroke:none"
             d="m 0,0 13.649,7.881 c 0.718,0.414 1.299,0.225 1.299,-0.423 0,-0.647 -0.581,-1.508 -1.299,-1.922 L 0,-2.345 c -0.717,-0.414 -1.299,-0.225 -1.299,0.422 0,0.648 0.582,1.509 1.299,1.923" /></g><g
           transform="translate(330.2939,266.23)"
           id="g356"><path
             id="path358"
             style="fill:#fafafa;fill-opacity:1;fill-rule:nonzero;stroke:none"
             d="M 0,0 V -4.035 C 0,-4.864 0.582,-5.2 1.299,-4.785 l 13.649,7.881 c 0.718,0.414 1.299,1.421 1.299,2.25 l 0.001,4.035 c 0,0.829 -0.582,1.164 -1.299,0.75 L 1.299,2.25 C 0.582,1.836 0,0.828 0,0" /></g><g
           transform="translate(265.5693,205.9873)"
           id="g360"><path
             id="path362"
             style="fill:#e0e0e0;fill-opacity:1;fill-rule:nonzero;stroke:none"
             d="m 0,0 80.704,46.595 c 2.392,1.381 4.331,0.4 4.331,-2.191 0,-2.59 -1.939,-5.809 -4.331,-7.19 L 0,-9.381 c -2.392,-1.38 -4.33,-0.4 -4.33,2.191 0,2.59 1.938,5.81 4.33,7.19" /></g><g
           transform="translate(265.5693,187.2256)"
           id="g364"><path
             id="path366"
             style="fill:#e0e0e0;fill-opacity:1;fill-rule:nonzero;stroke:none"
             d="m 0,0 80.704,46.595 c 2.392,1.381 4.331,0.4 4.331,-2.191 0,-2.59 -1.939,-5.809 -4.331,-7.19 L 0,-9.381 c -2.392,-1.38 -4.33,-0.4 -4.33,2.191 0,2.59 1.938,5.81 4.33,7.19" /></g><g
           transform="translate(291.8389,178.9399)"
           id="g368"><path
             id="path370"
             style="fill:#27debf;fill-opacity:1;fill-rule:nonzero;stroke:none"
             d="m 0,0 28.165,16.262 c 1.196,0.69 2.165,0.131 2.165,-1.25 L 30.331,5.94 c 0,-1.38 -0.97,-3.059 -2.165,-3.75 L 0,-14.071 c -1.195,-0.691 -2.165,-0.131 -2.165,1.25 v 9.071 c 0,1.381 0.969,3.06 2.165,3.75" /></g><g
           transform="translate(267.332,204.6094)"
           id="g372"><path
             id="path374"
             style="fill:#fafafa;fill-opacity:1;fill-rule:nonzero;stroke:none"
             d="m 0,0 c -1.121,-0.647 -2.031,-2.223 -2.031,-3.518 0,-1.295 0.91,-1.82 2.031,-1.173 1.122,0.648 2.031,2.223 2.031,3.518 C 2.031,0.123 1.122,0.648 0,0" /></g><g
           transform="translate(273.7666,208.3296)"
           id="g376"><path
             id="path378"
             style="fill:#fafafa;fill-opacity:1;fill-rule:nonzero;stroke:none"
             d="m 0,0 c -1.122,-0.647 -2.031,-2.223 -2.031,-3.518 0,-1.295 0.909,-1.821 2.031,-1.173 1.121,0.648 2.031,2.223 2.031,3.518 C 2.031,0.123 1.121,0.648 0,0" /></g><g
           transform="translate(280.2012,212.0498)"
           id="g380"><path
             id="path382"
             style="fill:#fafafa;fill-opacity:1;fill-rule:nonzero;stroke:none"
             d="m 0,0 c -1.122,-0.647 -2.031,-2.223 -2.031,-3.518 0,-1.295 0.909,-1.821 2.031,-1.173 1.121,0.648 2.03,2.223 2.03,3.518 C 2.03,0.123 1.121,0.647 0,0" /></g><g
           transform="translate(286.6348,215.77)"
           id="g384"><path
             id="path386"
             style="fill:#fafafa;fill-opacity:1;fill-rule:nonzero;stroke:none"
             d="m 0,0 c -1.121,-0.648 -2.031,-2.223 -2.031,-3.519 0,-1.294 0.91,-1.82 2.031,-1.172 1.122,0.648 2.031,2.222 2.031,3.518 C 2.031,0.123 1.122,0.647 0,0" /></g><g
           transform="translate(293.0693,219.4902)"
           id="g388"><path
             id="path390"
             style="fill:#fafafa;fill-opacity:1;fill-rule:nonzero;stroke:none"
             d="m 0,0 c -1.122,-0.648 -2.031,-2.223 -2.031,-3.519 0,-1.295 0.909,-1.82 2.031,-1.172 1.121,0.647 2.031,2.222 2.031,3.518 C 2.031,0.122 1.121,0.647 0,0" /></g><g
           transform="translate(299.5039,223.21)"
           id="g392"><path
             id="path394"
             style="fill:#fafafa;fill-opacity:1;fill-rule:nonzero;stroke:none"
             d="m 0,0 c -1.122,-0.647 -2.031,-2.223 -2.031,-3.518 0,-1.295 0.909,-1.82 2.031,-1.173 1.121,0.648 2.03,2.223 2.03,3.518 C 2.03,0.123 1.121,0.648 0,0" /></g><g
           transform="translate(305.9375,226.9302)"
           id="g396"><path
             id="path398"
             style="fill:#fafafa;fill-opacity:1;fill-rule:nonzero;stroke:none"
             d="m 0,0 c -1.121,-0.647 -2.03,-2.223 -2.03,-3.518 0,-1.295 0.909,-1.82 2.03,-1.173 1.122,0.648 2.031,2.223 2.031,3.518 C 2.031,0.123 1.122,0.648 0,0" /></g><g
           transform="translate(267.332,185.8271)"
           id="g400"><path
             id="path402"
             style="fill:#fafafa;fill-opacity:1;fill-rule:nonzero;stroke:none"
             d="m 0,0 c -1.121,-0.647 -2.031,-2.223 -2.031,-3.518 0,-1.295 0.91,-1.821 2.031,-1.173 1.122,0.648 2.031,2.223 2.031,3.518 C 2.031,0.123 1.122,0.648 0,0" /></g><g
           transform="translate(273.7666,189.5474)"
           id="g404"><path
             id="path406"
             style="fill:#fafafa;fill-opacity:1;fill-rule:nonzero;stroke:none"
             d="m 0,0 c -1.122,-0.647 -2.031,-2.223 -2.031,-3.518 0,-1.295 0.909,-1.821 2.031,-1.173 1.121,0.648 2.031,2.223 2.031,3.518 C 2.031,0.123 1.121,0.647 0,0" /></g><g
           transform="translate(280.2012,193.2676)"
           id="g408"><path
             id="path410"
             style="fill:#fafafa;fill-opacity:1;fill-rule:nonzero;stroke:none"
             d="m 0,0 c -1.122,-0.647 -2.031,-2.223 -2.031,-3.518 0,-1.295 0.909,-1.821 2.031,-1.173 1.121,0.648 2.03,2.223 2.03,3.518 C 2.03,0.123 1.121,0.647 0,0" /></g><g
           transform="translate(286.6348,196.9878)"
           id="g412"><path
             id="path414"
             style="fill:#fafafa;fill-opacity:1;fill-rule:nonzero;stroke:none"
             d="m 0,0 c -1.121,-0.647 -2.031,-2.223 -2.031,-3.518 0,-1.295 0.91,-1.821 2.031,-1.173 1.122,0.648 2.031,2.223 2.031,3.518 C 2.031,0.122 1.122,0.647 0,0" /></g><g
           transform="translate(293.0693,200.708)"
           id="g416"><path
             id="path418"
             style="fill:#fafafa;fill-opacity:1;fill-rule:nonzero;stroke:none"
             d="m 0,0 c -1.122,-0.648 -2.031,-2.223 -2.031,-3.519 0,-1.295 0.909,-1.82 2.031,-1.172 1.121,0.647 2.031,2.222 2.031,3.518 C 2.031,0.122 1.121,0.647 0,0" /></g><g
           transform="translate(299.5039,204.4282)"
           id="g420"><path
             id="path422"
             style="fill:#fafafa;fill-opacity:1;fill-rule:nonzero;stroke:none"
             d="m 0,0 c -1.122,-0.648 -2.031,-2.223 -2.031,-3.519 0,-1.295 0.909,-1.82 2.031,-1.172 1.121,0.647 2.03,2.222 2.03,3.518 C 2.03,0.122 1.121,0.647 0,0" /></g><g
           transform="translate(305.9375,208.1479)"
           id="g424"><path
             id="path426"
             style="fill:#fafafa;fill-opacity:1;fill-rule:nonzero;stroke:none"
             d="m 0,0 c -1.121,-0.647 -2.03,-2.223 -2.03,-3.518 0,-1.295 0.909,-1.82 2.03,-1.173 1.122,0.648 2.031,2.223 2.031,3.518 C 2.031,0.123 1.122,0.648 0,0" /></g></g></g><g
       id="g428"><g
         clip-path="url(#clipPath434)"
         id="g430"><g
           transform="translate(416.8467,233.2539)"
           id="g436"><path
             id="path438"
             style="fill:#455a64;fill-opacity:1;fill-rule:nonzero;stroke:none"
             d="m 0,0 c -2.522,0 -5.187,-1.267 -6.826,-2.213 -11.421,-6.594 -21.07,-24.305 -21.07,-38.676 0,-5.816 1.631,-10.231 4.364,-11.808 3.11,-1.796 7.431,0.164 9.73,1.49 11.421,6.595 21.07,24.306 21.07,38.676 0,5.817 -1.631,10.231 -4.364,11.809 C 2.011,-0.207 1.017,0 0,0 m -20.661,-67.384 c -3.508,0 -6.835,0.865 -9.848,2.604 -7.206,4.161 -11.339,12.869 -11.339,23.891 0,19.383 12.32,41.679 28.046,50.759 8.468,4.887 16.877,5.419 23.682,1.49 7.207,-4.161 11.34,-12.869 11.34,-23.891 0,-19.383 -12.32,-41.678 -28.046,-50.758 -4.719,-2.724 -9.419,-4.095 -13.835,-4.095" /></g><g
           transform="translate(426.6104,217.6196)"
           id="g440"><path
             id="path442"
             style="fill:#37474f;fill-opacity:1;fill-rule:nonzero;stroke:none"
             d="m 0,0 c 0,10.886 -6.859,14.912 -6.859,14.912 2.732,-1.578 4.363,-5.992 4.363,-11.809 0,-14.37 -9.649,-32.081 -21.069,-38.676 -2.299,-1.325 -6.621,-3.285 -9.731,-1.49 0,0 5.788,-3.592 13.784,0.77 C -7.934,-29.978 0,-14.371 0,0" /></g><g
           transform="translate(415.6074,353.7056)"
           id="g444"><path
             id="path446"
             style="fill:#37474f;fill-opacity:1;fill-rule:nonzero;stroke:none"
             d="m 0,0 c 0,3.984 -3.229,7.213 -7.213,7.213 -3.983,0 -7.213,-3.229 -7.213,-7.213 v -0.019 -114.708 c 0,-1.066 0.704,-2.132 2.113,-2.945 2.816,-1.626 7.383,-1.626 10.201,0 1.408,0.813 2.112,1.879 2.112,2.945 V -0.019 H -0.001 C -0.001,-0.013 0,-0.006 0,0" /></g><g
           transform="translate(409.8457,328.0732)"
           id="g448"><path
             id="path450"
             style="fill:#455a64;fill-opacity:1;fill-rule:nonzero;stroke:none"
             d="m 0,0 c 0,2.657 -1.865,5.887 -4.165,7.215 -1.17,0.676 -2.224,0.723 -2.981,0.263 L -7.149,7.484 -24.947,-2.77 -25.378,-3.026 c -0.061,-0.031 -0.123,-0.062 -0.174,-0.103 -0.307,-0.205 -0.594,-0.441 -0.851,-0.697 -1.077,-1.067 -1.743,-2.553 -1.743,-4.184 0,-2.236 1.241,-4.184 3.066,-5.189 0.841,-0.451 1.794,-0.707 2.819,-0.707 1.016,0 1.98,0.256 2.81,0.707 0.113,0.062 0.225,0.134 0.339,0.195 l 17.911,10.316 -0.003,0.004 C -0.461,-2.245 0,-1.318 0,0" /></g><g
           transform="translate(409.8457,299.3477)"
           id="g452"><path
             id="path454"
             style="fill:#455a64;fill-opacity:1;fill-rule:nonzero;stroke:none"
             d="m 0,0 c 0,2.657 -1.865,5.887 -4.165,7.215 -1.17,0.676 -2.224,0.723 -2.981,0.263 l -0.003,0.006 -20.86,-11.979 -0.43,-0.257 c -0.062,-0.031 -0.123,-0.061 -0.175,-0.102 -0.308,-0.206 -0.595,-0.441 -0.851,-0.698 -1.077,-1.066 -1.743,-2.553 -1.743,-4.183 0,-2.236 1.24,-4.184 3.065,-5.189 0.841,-0.451 1.795,-0.708 2.821,-0.708 1.015,0 1.979,0.257 2.809,0.708 0.114,0.061 0.226,0.133 0.339,0.195 l 20.973,12.041 -0.003,0.004 C -0.461,-2.244 0,-1.318 0,0" /></g></g></g></g></svg>